<svg xmlns="http://www.w3.org/2000/svg" xmlns:xlink="http://www.w3.org/1999/xlink" width="45" zoomAndPan="magnify" viewBox="0 0 33.75 33.749998" height="45" preserveAspectRatio="xMidYMid meet" version="1.0"><defs><clipPath id="2c554385a7"><path d="M 0 0 L 33.5 0 L 33.5 33.5 L 0 33.5 Z M 0 0 " clip-rule="nonzero"/></clipPath><radialGradient gradientTransform="matrix(1, 0, 0, 1, 0.000001, -0.000000992647)" gradientUnits="userSpaceOnUse" r="23.689521" cx="16.750918" id="3ff80a95d0" cy="16.750918" fx="16.750918" fy="16.750918"><stop stop-opacity="1" stop-color="rgb(100%, 86.914062%, 35.063171%)" offset="0"/><stop stop-opacity="1" stop-color="rgb(100%, 86.639404%, 35.308838%)" offset="0.0078125"/><stop stop-opacity="1" stop-color="rgb(100%, 86.454773%, 35.473633%)" offset="0.0117188"/><stop stop-opacity="1" stop-color="rgb(100%, 86.270142%, 35.636902%)" offset="0.015625"/><stop stop-opacity="1" stop-color="rgb(100%, 86.087036%, 35.801697%)" offset="0.0195312"/><stop stop-opacity="1" stop-color="rgb(100%, 85.902405%, 35.964966%)" offset="0.0234375"/><stop stop-opacity="1" stop-color="rgb(100%, 85.719299%, 36.129761%)" offset="0.0273438"/><stop stop-opacity="1" stop-color="rgb(100%, 85.534668%, 36.29303%)" offset="0.03125"/><stop stop-opacity="1" stop-color="rgb(100%, 85.351562%, 36.457825%)" offset="0.0351562"/><stop stop-opacity="1" stop-color="rgb(100%, 85.166931%, 36.621094%)" offset="0.0390625"/><stop stop-opacity="1" stop-color="rgb(100%, 84.9823%, 36.785889%)" offset="0.0429688"/><stop stop-opacity="1" stop-color="rgb(100%, 84.799194%, 36.949158%)" offset="0.046875"/><stop stop-opacity="1" stop-color="rgb(100%, 84.614563%, 37.113953%)" offset="0.0507812"/><stop stop-opacity="1" stop-color="rgb(100%, 84.431458%, 37.277222%)" offset="0.0546875"/><stop stop-opacity="1" stop-color="rgb(100%, 84.246826%, 37.442017%)" offset="0.0585938"/><stop stop-opacity="1" stop-color="rgb(100%, 84.063721%, 37.605286%)" offset="0.0625"/><stop stop-opacity="1" stop-color="rgb(100%, 83.879089%, 37.770081%)" offset="0.0664062"/><stop stop-opacity="1" stop-color="rgb(100%, 83.694458%, 37.93335%)" offset="0.0703125"/><stop stop-opacity="1" stop-color="rgb(100%, 83.511353%, 38.098145%)" offset="0.0742188"/><stop stop-opacity="1" stop-color="rgb(100%, 83.326721%, 38.261414%)" offset="0.078125"/><stop stop-opacity="1" stop-color="rgb(100%, 83.143616%, 38.426208%)" offset="0.0820312"/><stop stop-opacity="1" stop-color="rgb(100%, 82.958984%, 38.591003%)" offset="0.0859375"/><stop stop-opacity="1" stop-color="rgb(100%, 82.775879%, 38.754272%)" offset="0.0898438"/><stop stop-opacity="1" stop-color="rgb(100%, 82.591248%, 38.919067%)" offset="0.09375"/><stop stop-opacity="1" stop-color="rgb(100%, 82.406616%, 39.082336%)" offset="0.0976562"/><stop stop-opacity="1" stop-color="rgb(100%, 82.223511%, 39.247131%)" offset="0.101562"/><stop stop-opacity="1" stop-color="rgb(100%, 82.038879%, 39.4104%)" offset="0.105469"/><stop stop-opacity="1" stop-color="rgb(100%, 81.855774%, 39.575195%)" offset="0.109375"/><stop stop-opacity="1" stop-color="rgb(100%, 81.671143%, 39.738464%)" offset="0.113281"/><stop stop-opacity="1" stop-color="rgb(100%, 81.488037%, 39.903259%)" offset="0.117188"/><stop stop-opacity="1" stop-color="rgb(100%, 81.303406%, 40.066528%)" offset="0.121094"/><stop stop-opacity="1" stop-color="rgb(100%, 81.118774%, 40.231323%)" offset="0.125"/><stop stop-opacity="1" stop-color="rgb(100%, 80.935669%, 40.394592%)" offset="0.128906"/><stop stop-opacity="1" stop-color="rgb(100%, 80.751038%, 40.559387%)" offset="0.132812"/><stop stop-opacity="1" stop-color="rgb(100%, 80.567932%, 40.722656%)" offset="0.136719"/><stop stop-opacity="1" stop-color="rgb(100%, 80.383301%, 40.887451%)" offset="0.140625"/><stop stop-opacity="1" stop-color="rgb(100%, 80.198669%, 41.05072%)" offset="0.144531"/><stop stop-opacity="1" stop-color="rgb(100%, 80.015564%, 41.215515%)" offset="0.148438"/><stop stop-opacity="1" stop-color="rgb(100%, 79.830933%, 41.378784%)" offset="0.152344"/><stop stop-opacity="1" stop-color="rgb(100%, 79.647827%, 41.543579%)" offset="0.15625"/><stop stop-opacity="1" stop-color="rgb(100%, 79.463196%, 41.706848%)" offset="0.160156"/><stop stop-opacity="1" stop-color="rgb(100%, 79.28009%, 41.871643%)" offset="0.164062"/><stop stop-opacity="1" stop-color="rgb(100%, 79.095459%, 42.034912%)" offset="0.167969"/><stop stop-opacity="1" stop-color="rgb(100%, 78.910828%, 42.199707%)" offset="0.171875"/><stop stop-opacity="1" stop-color="rgb(100%, 78.727722%, 42.362976%)" offset="0.175781"/><stop stop-opacity="1" stop-color="rgb(100%, 78.543091%, 42.527771%)" offset="0.179688"/><stop stop-opacity="1" stop-color="rgb(100%, 78.359985%, 42.692566%)" offset="0.183594"/><stop stop-opacity="1" stop-color="rgb(100%, 78.175354%, 42.855835%)" offset="0.1875"/><stop stop-opacity="1" stop-color="rgb(100%, 77.992249%, 43.02063%)" offset="0.191406"/><stop stop-opacity="1" stop-color="rgb(100%, 77.807617%, 43.183899%)" offset="0.195312"/><stop stop-opacity="1" stop-color="rgb(100%, 77.622986%, 43.348694%)" offset="0.199219"/><stop stop-opacity="1" stop-color="rgb(100%, 77.43988%, 43.511963%)" offset="0.203125"/><stop stop-opacity="1" stop-color="rgb(100%, 77.255249%, 43.676758%)" offset="0.207031"/><stop stop-opacity="1" stop-color="rgb(100%, 77.072144%, 43.840027%)" offset="0.210938"/><stop stop-opacity="1" stop-color="rgb(100%, 76.887512%, 44.004822%)" offset="0.214844"/><stop stop-opacity="1" stop-color="rgb(100%, 76.704407%, 44.168091%)" offset="0.21875"/><stop stop-opacity="1" stop-color="rgb(100%, 76.519775%, 44.332886%)" offset="0.222656"/><stop stop-opacity="1" stop-color="rgb(100%, 76.335144%, 44.496155%)" offset="0.226562"/><stop stop-opacity="1" stop-color="rgb(100%, 76.152039%, 44.66095%)" offset="0.230469"/><stop stop-opacity="1" stop-color="rgb(100%, 75.967407%, 44.824219%)" offset="0.234375"/><stop stop-opacity="1" stop-color="rgb(100%, 75.784302%, 44.989014%)" offset="0.238281"/><stop stop-opacity="1" stop-color="rgb(100%, 75.59967%, 45.152283%)" offset="0.242188"/><stop stop-opacity="1" stop-color="rgb(100%, 75.415039%, 45.317078%)" offset="0.246094"/><stop stop-opacity="1" stop-color="rgb(100%, 75.231934%, 45.480347%)" offset="0.25"/><stop stop-opacity="1" stop-color="rgb(100%, 74.95575%, 45.726013%)" offset="0.253906"/><stop stop-opacity="1" stop-color="rgb(100%, 74.588013%, 46.054077%)" offset="0.261719"/><stop stop-opacity="1" stop-color="rgb(100%, 74.220276%, 46.382141%)" offset="0.269531"/><stop stop-opacity="1" stop-color="rgb(100%, 73.851013%, 46.711731%)" offset="0.277344"/><stop stop-opacity="1" stop-color="rgb(100%, 73.483276%, 47.039795%)" offset="0.285156"/><stop stop-opacity="1" stop-color="rgb(100%, 73.11554%, 47.367859%)" offset="0.292969"/><stop stop-opacity="1" stop-color="rgb(100%, 72.747803%, 47.695923%)" offset="0.300781"/><stop stop-opacity="1" stop-color="rgb(100%, 72.380066%, 48.023987%)" offset="0.308594"/><stop stop-opacity="1" stop-color="rgb(100%, 72.012329%, 48.352051%)" offset="0.316406"/><stop stop-opacity="1" stop-color="rgb(100%, 71.644592%, 48.680115%)" offset="0.324219"/><stop stop-opacity="1" stop-color="rgb(100%, 71.27533%, 49.008179%)" offset="0.332031"/><stop stop-opacity="1" stop-color="rgb(100%, 70.907593%, 49.336243%)" offset="0.339844"/><stop stop-opacity="1" stop-color="rgb(100%, 70.539856%, 49.664307%)" offset="0.347656"/><stop stop-opacity="1" stop-color="rgb(100%, 70.172119%, 49.992371%)" offset="0.355469"/><stop stop-opacity="1" stop-color="rgb(100%, 69.804382%, 50.320435%)" offset="0.363281"/><stop stop-opacity="1" stop-color="rgb(100%, 69.436646%, 50.648499%)" offset="0.371094"/><stop stop-opacity="1" stop-color="rgb(100%, 69.067383%, 50.976562%)" offset="0.378906"/><stop stop-opacity="1" stop-color="rgb(100%, 68.699646%, 51.304626%)" offset="0.386719"/><stop stop-opacity="1" stop-color="rgb(100%, 68.331909%, 51.63269%)" offset="0.394531"/><stop stop-opacity="1" stop-color="rgb(100%, 67.964172%, 51.960754%)" offset="0.402344"/><stop stop-opacity="1" stop-color="rgb(100%, 67.596436%, 52.288818%)" offset="0.410156"/><stop stop-opacity="1" stop-color="rgb(100%, 67.228699%, 52.616882%)" offset="0.417969"/><stop stop-opacity="1" stop-color="rgb(100%, 66.860962%, 52.944946%)" offset="0.425781"/><stop stop-opacity="1" stop-color="rgb(100%, 66.491699%, 53.27301%)" offset="0.433594"/><stop stop-opacity="1" stop-color="rgb(100%, 66.123962%, 53.601074%)" offset="0.441406"/><stop stop-opacity="1" stop-color="rgb(100%, 65.756226%, 53.929138%)" offset="0.449219"/><stop stop-opacity="1" stop-color="rgb(100%, 65.388489%, 54.257202%)" offset="0.457031"/><stop stop-opacity="1" stop-color="rgb(100%, 65.020752%, 54.585266%)" offset="0.464844"/><stop stop-opacity="1" stop-color="rgb(100%, 64.653015%, 54.914856%)" offset="0.472656"/><stop stop-opacity="1" stop-color="rgb(100%, 64.285278%, 55.24292%)" offset="0.480469"/><stop stop-opacity="1" stop-color="rgb(100%, 63.916016%, 55.570984%)" offset="0.488281"/><stop stop-opacity="1" stop-color="rgb(100%, 63.548279%, 55.899048%)" offset="0.496094"/><stop stop-opacity="1" stop-color="rgb(100%, 63.272095%, 56.144714%)" offset="0.503906"/><stop stop-opacity="1" stop-color="rgb(100%, 63.088989%, 56.309509%)" offset="0.507812"/><stop stop-opacity="1" stop-color="rgb(100%, 62.904358%, 56.472778%)" offset="0.511719"/><stop stop-opacity="1" stop-color="rgb(100%, 62.721252%, 56.637573%)" offset="0.515625"/><stop stop-opacity="1" stop-color="rgb(100%, 62.536621%, 56.800842%)" offset="0.519531"/><stop stop-opacity="1" stop-color="rgb(100%, 62.353516%, 56.965637%)" offset="0.523438"/><stop stop-opacity="1" stop-color="rgb(100%, 62.168884%, 57.128906%)" offset="0.527344"/><stop stop-opacity="1" stop-color="rgb(100%, 61.984253%, 57.293701%)" offset="0.53125"/><stop stop-opacity="1" stop-color="rgb(100%, 61.801147%, 57.45697%)" offset="0.535156"/><stop stop-opacity="1" stop-color="rgb(100%, 61.616516%, 57.621765%)" offset="0.539062"/><stop stop-opacity="1" stop-color="rgb(100%, 61.433411%, 57.785034%)" offset="0.542969"/><stop stop-opacity="1" stop-color="rgb(100%, 61.248779%, 57.949829%)" offset="0.546875"/><stop stop-opacity="1" stop-color="rgb(100%, 61.065674%, 58.113098%)" offset="0.550781"/><stop stop-opacity="1" stop-color="rgb(100%, 60.881042%, 58.277893%)" offset="0.554688"/><stop stop-opacity="1" stop-color="rgb(100%, 60.696411%, 58.441162%)" offset="0.558594"/><stop stop-opacity="1" stop-color="rgb(100%, 60.513306%, 58.605957%)" offset="0.5625"/><stop stop-opacity="1" stop-color="rgb(100%, 60.328674%, 58.769226%)" offset="0.566406"/><stop stop-opacity="1" stop-color="rgb(100%, 60.145569%, 58.934021%)" offset="0.570312"/><stop stop-opacity="1" stop-color="rgb(100%, 59.960938%, 59.098816%)" offset="0.574219"/><stop stop-opacity="1" stop-color="rgb(100%, 59.777832%, 59.262085%)" offset="0.578125"/><stop stop-opacity="1" stop-color="rgb(100%, 59.593201%, 59.42688%)" offset="0.582031"/><stop stop-opacity="1" stop-color="rgb(100%, 59.408569%, 59.590149%)" offset="0.585938"/><stop stop-opacity="1" stop-color="rgb(100%, 59.225464%, 59.754944%)" offset="0.589844"/><stop stop-opacity="1" stop-color="rgb(100%, 59.040833%, 59.918213%)" offset="0.59375"/><stop stop-opacity="1" stop-color="rgb(100%, 58.857727%, 60.083008%)" offset="0.597656"/><stop stop-opacity="1" stop-color="rgb(100%, 58.673096%, 60.246277%)" offset="0.601562"/><stop stop-opacity="1" stop-color="rgb(100%, 58.48999%, 60.411072%)" offset="0.605469"/><stop stop-opacity="1" stop-color="rgb(100%, 58.305359%, 60.574341%)" offset="0.609375"/><stop stop-opacity="1" stop-color="rgb(100%, 58.120728%, 60.739136%)" offset="0.613281"/><stop stop-opacity="1" stop-color="rgb(100%, 57.937622%, 60.902405%)" offset="0.617188"/><stop stop-opacity="1" stop-color="rgb(100%, 57.752991%, 61.0672%)" offset="0.621094"/><stop stop-opacity="1" stop-color="rgb(100%, 57.569885%, 61.230469%)" offset="0.625"/><stop stop-opacity="1" stop-color="rgb(100%, 57.293701%, 61.476135%)" offset="0.628906"/><stop stop-opacity="1" stop-color="rgb(100%, 56.924438%, 61.804199%)" offset="0.636719"/><stop stop-opacity="1" stop-color="rgb(100%, 56.556702%, 62.132263%)" offset="0.644531"/><stop stop-opacity="1" stop-color="rgb(100%, 56.188965%, 62.460327%)" offset="0.652344"/><stop stop-opacity="1" stop-color="rgb(100%, 55.821228%, 62.788391%)" offset="0.660156"/><stop stop-opacity="1" stop-color="rgb(100%, 55.453491%, 63.117981%)" offset="0.667969"/><stop stop-opacity="1" stop-color="rgb(100%, 55.085754%, 63.446045%)" offset="0.675781"/><stop stop-opacity="1" stop-color="rgb(100%, 54.718018%, 63.774109%)" offset="0.683594"/><stop stop-opacity="1" stop-color="rgb(100%, 54.348755%, 64.102173%)" offset="0.691406"/><stop stop-opacity="1" stop-color="rgb(100%, 53.981018%, 64.430237%)" offset="0.699219"/><stop stop-opacity="1" stop-color="rgb(100%, 53.613281%, 64.758301%)" offset="0.707031"/><stop stop-opacity="1" stop-color="rgb(100%, 53.245544%, 65.086365%)" offset="0.714844"/><stop stop-opacity="1" stop-color="rgb(100%, 52.877808%, 65.414429%)" offset="0.722656"/><stop stop-opacity="1" stop-color="rgb(100%, 52.510071%, 65.742493%)" offset="0.730469"/><stop stop-opacity="1" stop-color="rgb(100%, 52.140808%, 66.070557%)" offset="0.738281"/><stop stop-opacity="1" stop-color="rgb(100%, 51.773071%, 66.398621%)" offset="0.746094"/><stop stop-opacity="1" stop-color="rgb(100%, 51.498413%, 66.644287%)" offset="0.753906"/><stop stop-opacity="1" stop-color="rgb(100%, 51.313782%, 66.809082%)" offset="0.757812"/><stop stop-opacity="1" stop-color="rgb(100%, 51.12915%, 66.972351%)" offset="0.761719"/><stop stop-opacity="1" stop-color="rgb(100%, 50.946045%, 67.137146%)" offset="0.765625"/><stop stop-opacity="1" stop-color="rgb(100%, 50.761414%, 67.301941%)" offset="0.769531"/><stop stop-opacity="1" stop-color="rgb(100%, 50.578308%, 67.46521%)" offset="0.773438"/><stop stop-opacity="1" stop-color="rgb(100%, 50.393677%, 67.630005%)" offset="0.777344"/><stop stop-opacity="1" stop-color="rgb(100%, 50.210571%, 67.793274%)" offset="0.78125"/><stop stop-opacity="1" stop-color="rgb(100%, 50.02594%, 67.958069%)" offset="0.785156"/><stop stop-opacity="1" stop-color="rgb(100%, 49.841309%, 68.121338%)" offset="0.789062"/><stop stop-opacity="1" stop-color="rgb(100%, 49.658203%, 68.286133%)" offset="0.792969"/><stop stop-opacity="1" stop-color="rgb(100%, 49.473572%, 68.449402%)" offset="0.796875"/><stop stop-opacity="1" stop-color="rgb(100%, 49.290466%, 68.614197%)" offset="0.800781"/><stop stop-opacity="1" stop-color="rgb(100%, 49.105835%, 68.777466%)" offset="0.804688"/><stop stop-opacity="1" stop-color="rgb(100%, 48.922729%, 68.942261%)" offset="0.808594"/><stop stop-opacity="1" stop-color="rgb(100%, 48.738098%, 69.10553%)" offset="0.8125"/><stop stop-opacity="1" stop-color="rgb(100%, 48.461914%, 69.351196%)" offset="0.816406"/><stop stop-opacity="1" stop-color="rgb(100%, 48.094177%, 69.67926%)" offset="0.824219"/><stop stop-opacity="1" stop-color="rgb(100%, 47.72644%, 70.007324%)" offset="0.832031"/><stop stop-opacity="1" stop-color="rgb(100%, 47.358704%, 70.335388%)" offset="0.839844"/><stop stop-opacity="1" stop-color="rgb(100%, 46.989441%, 70.663452%)" offset="0.847656"/><stop stop-opacity="1" stop-color="rgb(100%, 46.621704%, 70.991516%)" offset="0.855469"/><stop stop-opacity="1" stop-color="rgb(100%, 46.253967%, 71.321106%)" offset="0.863281"/><stop stop-opacity="1" stop-color="rgb(100%, 45.88623%, 71.64917%)" offset="0.871094"/><stop stop-opacity="1" stop-color="rgb(100%, 45.610046%, 71.894836%)" offset="0.878906"/><stop stop-opacity="1" stop-color="rgb(100%, 45.426941%, 72.059631%)" offset="0.882812"/><stop stop-opacity="1" stop-color="rgb(100%, 45.24231%, 72.2229%)" offset="0.886719"/><stop stop-opacity="1" stop-color="rgb(100%, 45.057678%, 72.387695%)" offset="0.890625"/><stop stop-opacity="1" stop-color="rgb(100%, 44.874573%, 72.550964%)" offset="0.894531"/><stop stop-opacity="1" stop-color="rgb(100%, 44.689941%, 72.715759%)" offset="0.898438"/><stop stop-opacity="1" stop-color="rgb(100%, 44.506836%, 72.879028%)" offset="0.902344"/><stop stop-opacity="1" stop-color="rgb(100%, 44.322205%, 73.043823%)" offset="0.90625"/><stop stop-opacity="1" stop-color="rgb(100%, 44.046021%, 73.28949%)" offset="0.910156"/><stop stop-opacity="1" stop-color="rgb(100%, 43.678284%, 73.617554%)" offset="0.917969"/><stop stop-opacity="1" stop-color="rgb(100%, 43.310547%, 73.945618%)" offset="0.925781"/><stop stop-opacity="1" stop-color="rgb(100%, 42.94281%, 74.273682%)" offset="0.933594"/><stop stop-opacity="1" stop-color="rgb(100%, 42.666626%, 74.519348%)" offset="0.941406"/><stop stop-opacity="1" stop-color="rgb(100%, 42.481995%, 74.684143%)" offset="0.945312"/><stop stop-opacity="1" stop-color="rgb(100%, 42.298889%, 74.847412%)" offset="0.949219"/><stop stop-opacity="1" stop-color="rgb(100%, 42.114258%, 75.012207%)" offset="0.953125"/><stop stop-opacity="1" stop-color="rgb(100%, 41.838074%, 75.257874%)" offset="0.957031"/><stop stop-opacity="1" stop-color="rgb(100%, 41.470337%, 75.585938%)" offset="0.964844"/><stop stop-opacity="1" stop-color="rgb(100%, 41.194153%, 75.83313%)" offset="0.972656"/><stop stop-opacity="1" stop-color="rgb(100%, 41.011047%, 75.996399%)" offset="0.976562"/><stop stop-opacity="1" stop-color="rgb(100%, 40.734863%, 76.242065%)" offset="0.980469"/><stop stop-opacity="1" stop-color="rgb(100%, 40.458679%, 76.489258%)" offset="0.988281"/><stop stop-opacity="1" stop-color="rgb(100%, 40.182495%, 76.734924%)" offset="0.992188"/><stop stop-opacity="1" stop-color="rgb(100%, 39.99939%, 76.899719%)" offset="1"/></radialGradient><clipPath id="b805ac4e96"><path d="M 1 0.53125 L 32.269531 0.53125 L 32.269531 33 L 1 33 Z M 1 0.53125 " clip-rule="nonzero"/></clipPath></defs><g clip-path="url(#2c554385a7)"><path fill="#ffffff" d="M 0 0 L 33.5 0 L 33.5 33.5 L 0 33.5 Z M 0 0 " fill-opacity="1" fill-rule="nonzero"/><path fill="url(#3ff80a95d0)" d="M 0 0 L 0 33.5 L 33.5 33.5 L 33.5 0 Z M 0 0 " fill-rule="nonzero"/></g><path fill="#004aad" d="M 13.339844 27.226562 C 14.007812 26.355469 15.132812 26.011719 16.152344 25.609375 C 17.171875 25.207031 18.253906 24.574219 18.511719 23.507812 C 18.242188 23.910156 17.847656 24.183594 17.398438 24.375 C 18.519531 23.441406 18.964844 21.878906 19.316406 20.4375 C 19.578125 19.375 19.835938 18.3125 20.097656 17.253906 C 19.882812 17.539062 19.632812 17.796875 19.34375 18.007812 C 19.277344 18.054688 19.667969 17.429688 20.125 16.457031 C 20.316406 16.027344 20.472656 15.585938 20.589844 15.234375 C 20.710938 14.738281 20.832031 14.238281 20.953125 13.742188 C 20.46875 14.511719 19.835938 15.1875 19.019531 15.53125 C 18.921875 15.574219 19.878906 14.636719 20.816406 13.253906 L 20.125 13.792969 C 20.207031 13.742188 20.332031 13.59375 20.472656 13.398438 C 20.613281 13.199219 20.898438 12.636719 20.964844 12.503906 C 21.085938 12.21875 21.191406 11.929688 21.257812 11.734375 C 20.953125 12.09375 20.703125 12.371094 20.703125 12.371094 C 20.925781 12.128906 21.140625 11.820312 21.34375 11.488281 C 21.398438 11.382812 21.457031 11.238281 21.519531 11.082031 C 21.128906 11.546875 20.699219 11.996094 20.371094 12.320312 C 20.324219 12.378906 20.273438 12.433594 20.226562 12.488281 L 20.222656 12.46875 C 20.269531 12.421875 20.316406 12.375 20.371094 12.320312 C 20.886719 11.703125 21.464844 10.734375 21.871094 10.003906 C 21.878906 9.96875 21.886719 9.933594 21.894531 9.894531 C 21.367188 10.660156 20.695312 11.355469 20.695312 11.355469 C 21.441406 10.554688 21.957031 9.3125 22.226562 8.550781 C 22.351562 8.03125 22.480469 7.511719 22.605469 6.992188 C 22.742188 6.4375 22.828125 5.742188 22.371094 5.40625 C 21.84375 5.023438 21.128906 5.472656 20.636719 5.902344 C 18.917969 7.417969 17.183594 8.949219 15.835938 10.800781 C 14.484375 12.648438 13.53125 14.875 13.589844 17.164062 C 13.21875 16.292969 13.144531 15.292969 13.390625 14.375 C 10.59375 16.625 9.746094 20.945312 11.457031 24.09375 L 11.347656 24.566406 C 10.800781 24.15625 10.476562 23.421875 10.328125 22.722656 C 10.132812 21.816406 10.089844 20.839844 9.585938 20.0625 C 9.875 21.214844 9.703125 22.425781 9.816406 23.605469 C 9.90625 24.550781 10.273438 25.554688 10.988281 26.132812 L 10.984375 26.140625 L 11.054688 26.359375 C 9.730469 25.976562 8.597656 24.949219 8.128906 23.652344 C 8.261719 25.394531 9.640625 26.957031 11.335938 27.355469 C 14.109375 19.257812 18.761719 11.550781 18.761719 11.550781 C 15.105469 17.894531 12.613281 25.230469 11.710938 28.09375 C 12.003906 28.449219 12.4375 28.648438 12.960938 28.675781 C 13.71875 28.714844 14.457031 28.441406 15.160156 28.148438 C 15.863281 27.855469 16.570312 27.539062 17.332031 27.484375 C 16.167969 26.710938 14.59375 26.609375 13.339844 27.226562 " fill-opacity="1" fill-rule="nonzero"/><path fill="#004aad" d="M 18.292969 11.359375 C 18.292969 11.359375 11.46875 22.660156 9.429688 32.269531 L 10.867188 29.132812 C 10.867188 29.132812 13.636719 19.441406 18.292969 11.359375 " fill-opacity="1" fill-rule="nonzero"/><g clip-path="url(#b805ac4e96)"><path fill="#004aad" d="M 14.3125 30.660156 C 14.902344 30.53125 15.519531 30.433594 16.113281 30.335938 C 17.375 30.140625 18.476562 30.375 19.757812 30.175781 C 20.5625 30.042969 21.371094 29.953125 22.1875 29.777344 C 22.394531 29.738281 22.59375 29.675781 22.796875 29.625 C 23 29.570312 23.203125 29.515625 23.398438 29.4375 C 23.597656 29.367188 23.796875 29.292969 23.996094 29.214844 C 24.1875 29.125 24.382812 29.03125 24.574219 28.933594 L 24.835938 28.796875 L 25.089844 28.640625 L 25.601562 28.332031 L 26.089844 27.992188 L 26.332031 27.820312 L 26.566406 27.632812 L 27.03125 27.261719 L 27.472656 26.863281 C 27.777344 26.605469 28.039062 26.304688 28.320312 26.027344 C 28.851562 25.433594 29.367188 24.832031 29.804688 24.171875 C 30.042969 23.855469 30.238281 23.507812 30.453125 23.179688 C 30.554688 23.007812 30.644531 22.832031 30.742188 22.660156 C 30.835938 22.488281 30.9375 22.320312 31.019531 22.140625 C 31.6875 20.808594 32.117188 19.390625 32.304688 17.960938 C 32.488281 16.53125 32.457031 15.09375 32.238281 13.691406 C 32.023438 12.289062 31.59375 10.921875 31.003906 9.617188 C 30.410156 8.320312 29.640625 7.070312 28.671875 5.945312 C 28.121094 5.285156 27.46875 4.671875 26.769531 4.085938 C 26.0625 3.511719 25.285156 3 24.464844 2.546875 C 23.644531 2.101562 22.773438 1.734375 21.886719 1.4375 C 20.996094 1.148438 20.085938 0.949219 19.1875 0.820312 C 17.875 0.640625 15.828125 0.53125 13.894531 0.929688 C 11.953125 1.273438 10.1875 2.078125 9.253906 2.71875 C 10.574219 1.984375 12.050781 1.433594 13.574219 1.148438 C 15.09375 0.855469 16.65625 0.8125 18.125 0.980469 C 14.878906 0.753906 11.53125 1.570312 8.714844 3.230469 C 7.308594 4.066406 6.007812 5.082031 4.925781 6.285156 C 3.84375 7.480469 2.9375 8.828125 2.308594 10.261719 C 3.519531 7.578125 5.589844 5.289062 8.070312 3.703125 C 10.554688 2.117188 13.476562 1.226562 16.378906 1.195312 C 19.285156 1.1875 22.121094 2.011719 24.464844 3.480469 C 25.636719 4.207031 26.695312 5.085938 27.585938 6.078125 C 28.472656 7.074219 29.191406 8.183594 29.71875 9.34375 C 29.382812 8.679688 28.960938 8.046875 28.5 7.425781 C 28.257812 7.125 28.023438 6.8125 27.75 6.527344 C 27.492188 6.226562 27.203125 5.957031 26.914062 5.675781 C 25.738281 4.589844 24.351562 3.644531 22.804688 2.957031 C 22.425781 2.773438 22.023438 2.636719 21.625 2.476562 C 21.21875 2.347656 20.8125 2.203125 20.394531 2.105469 C 19.980469 1.984375 19.554688 1.90625 19.128906 1.820312 C 18.914062 1.785156 18.699219 1.757812 18.484375 1.726562 C 18.265625 1.691406 18.050781 1.671875 17.832031 1.65625 C 16.089844 1.488281 14.300781 1.671875 12.589844 2.125 C 9.164062 3.039062 6.078125 5.160156 4.058594 7.921875 C 3.058594 9.308594 2.3125 10.828125 1.871094 12.382812 C 1.816406 12.578125 1.757812 12.773438 1.707031 12.964844 C 1.664062 13.160156 1.621094 13.355469 1.582031 13.550781 L 1.519531 13.839844 L 1.472656 14.132812 C 1.441406 14.324219 1.414062 14.519531 1.386719 14.710938 C 1.347656 15.097656 1.304688 15.484375 1.292969 15.863281 C 1.285156 16.246094 1.265625 16.621094 1.289062 16.992188 C 1.308594 17.894531 1.476562 18.882812 1.667969 19.605469 C 1.007812 16.777344 1.273438 13.425781 2.6875 10.394531 C 4.097656 7.359375 6.710938 4.757812 9.867188 3.28125 C 10.65625 2.914062 11.46875 2.589844 12.308594 2.363281 C 12.722656 2.230469 13.148438 2.148438 13.570312 2.054688 C 13.785156 2.011719 14 1.980469 14.210938 1.945312 C 14.425781 1.910156 14.640625 1.878906 14.855469 1.863281 L 15.5 1.800781 L 16.144531 1.777344 L 16.464844 1.769531 L 16.789062 1.78125 C 17 1.789062 17.214844 1.789062 17.429688 1.808594 C 18.28125 1.863281 19.117188 2.007812 19.9375 2.195312 C 23.214844 2.984375 26.066406 4.847656 27.972656 7.175781 C 28.84375 8.246094 29.558594 9.4375 30.066406 10.714844 C 30.574219 11.992188 30.914062 13.335938 31.046875 14.699219 C 31.171875 16.0625 31.117188 17.441406 30.84375 18.773438 C 30.5625 20.105469 30.082031 21.386719 29.394531 22.570312 C 28.609375 23.832031 27.628906 24.980469 26.46875 25.914062 C 26.179688 26.164062 25.859375 26.371094 25.554688 26.597656 L 24.828125 27.054688 L 24.578125 27.1875 C 23.917969 27.570312 23.210938 27.855469 22.496094 28.097656 L 21.953125 28.265625 C 21.773438 28.316406 21.585938 28.351562 21.402344 28.394531 L 21.128906 28.460938 C 21.035156 28.476562 20.941406 28.492188 20.84375 28.507812 C 20.65625 28.535156 20.46875 28.574219 20.277344 28.597656 C 19.507812 28.699219 18.707031 28.75 17.894531 28.808594 C 17.171875 28.859375 16.277344 28.914062 15.328125 29.058594 C 14.375 29.191406 13.355469 29.464844 12.460938 29.878906 C 12.015625 30.089844 11.597656 30.335938 11.230469 30.605469 C 10.863281 30.871094 10.554688 31.175781 10.304688 31.46875 C 9.804688 32.0625 9.597656 32.640625 9.585938 32.964844 C 9.835938 32.539062 10.144531 32.121094 10.503906 31.757812 C 10.867188 31.398438 11.277344 31.09375 11.6875 30.875 C 11.410156 31.101562 11.117188 31.382812 10.835938 31.679688 C 11.128906 31.421875 11.492188 31.195312 11.789062 30.984375 C 11.667969 31.070312 11.550781 31.167969 11.457031 31.257812 C 11.359375 31.34375 11.292969 31.429688 11.265625 31.488281 C 11.636719 31.222656 12.164062 30.832031 12.488281 30.652344 C 12.578125 30.59375 12.839844 30.4375 13.121094 30.300781 C 13.402344 30.160156 13.703125 30.042969 13.84375 30.015625 C 13.503906 30.171875 13.121094 30.351562 12.78125 30.558594 C 12.4375 30.765625 12.128906 30.988281 11.917969 31.199219 C 12.023438 31.136719 12.128906 31.078125 12.238281 31.023438 C 12.347656 30.96875 12.453125 30.914062 12.566406 30.875 C 12.441406 30.957031 12.261719 31.074219 12.09375 31.183594 C 11.933594 31.304688 11.789062 31.410156 11.75 31.484375 C 12.246094 31.160156 12.714844 30.894531 13.308594 30.691406 C 13.789062 30.527344 14.234375 30.421875 14.707031 30.292969 C 14.140625 30.453125 13.40625 30.71875 13.082031 30.964844 C 13.332031 30.886719 13.589844 30.789062 13.847656 30.703125 C 13.820312 30.71875 13.804688 30.738281 13.800781 30.75 C 13.917969 30.714844 14.074219 30.6875 14.195312 30.652344 C 14.203125 30.667969 14.234375 30.679688 14.214844 30.699219 C 14.214844 30.6875 14.210938 30.675781 14.210938 30.664062 L 14.3125 30.660156 " fill-opacity="1" fill-rule="nonzero"/></g></svg>